# Blender v2.76 (sub 0) OBJ File: 'rpg items 3.blend'
# www.blender.org
v 2.361010 2.162839 1.628682
v 2.344601 1.130605 1.443306
v 2.272545 1.433464 2.921482
v 2.239507 -0.061310 2.928325
v 1.975174 2.162839 1.628682
v 1.711259 1.433601 2.921482
v 2.559624 2.115058 2.921482
v 2.440233 -1.424895 2.928325
v 2.559624 2.134478 4.326956
v 1.461293 -0.098609 4.020579
v 1.686572 0.711418 2.921482
v 1.828459 1.293326 1.628682
v 1.461293 2.134478 4.326956
v 2.440233 -0.928347 3.904172
v 1.461293 2.151126 2.877699
v 1.461293 0.711418 2.921482
v 2.294836 2.939088 3.255039
v 2.294836 2.949145 3.982844
v 1.726081 2.949145 3.982844
v 1.726081 2.957766 3.232367
v -2.361010 2.162839 1.628682
v -2.344601 1.130605 1.443306
v -2.272545 1.433464 2.921482
v -2.239507 -0.061310 2.928325
v -1.975174 2.162839 1.628682
v -1.711259 1.433601 2.921482
v -2.559624 2.115058 2.921482
v -2.440233 -1.424895 2.928325
v -2.559624 2.134478 4.326956
v -1.461293 -0.098609 4.020579
v -1.686572 0.711418 2.921482
v -1.828459 1.293326 1.628682
v -1.461293 2.134478 4.326956
v -2.440233 -0.928347 3.904172
v -1.461293 2.151126 2.877699
v -1.461293 0.711418 2.921482
v -2.294836 2.939088 3.255039
v -2.294836 2.949145 3.982844
v -1.726081 2.949145 3.982844
v -1.726081 2.957766 3.232367
v 2.361010 2.162839 -1.628682
v 2.344601 1.130605 -1.443306
v 2.403069 2.407138 0.000000
v 2.386661 1.450123 0.000000
v 2.272545 1.433464 -2.921482
v 2.239507 -0.061310 -2.928325
v 1.975174 2.162839 -1.628682
v 2.041706 2.407138 0.000000
v 1.711259 1.433601 -2.921482
v 2.559624 2.115058 -2.921482
v 2.440233 -1.424895 -2.928325
v 2.559624 2.134478 -4.326956
v 1.461293 -0.098609 -4.020579
v 1.686572 0.711418 -2.921482
v 1.828459 1.293326 -1.628682
v 1.917907 1.513475 0.000000
v 1.461293 2.134478 -4.326956
v 2.440233 -0.928347 -3.904172
v 1.461293 2.151126 -2.877699
v 1.461293 0.711418 -2.921482
v 2.294836 2.939088 -3.255039
v 2.294836 2.949145 -3.982844
v 1.726081 2.949145 -3.982844
v 1.726081 2.957766 -3.232367
v -2.361010 2.162839 -1.628682
v -2.344601 1.130605 -1.443306
v -2.403069 2.407138 0.000000
v -2.386661 1.450123 0.000000
v -2.272545 1.433464 -2.921482
v -2.239507 -0.061310 -2.928325
v -1.975174 2.162839 -1.628682
v -2.041706 2.407138 0.000000
v -1.711259 1.433601 -2.921482
v -2.559624 2.115058 -2.921482
v -2.440233 -1.424895 -2.928325
v -2.559624 2.134478 -4.326956
v -1.461293 -0.098609 -4.020579
v -1.686572 0.711418 -2.921482
v -1.828459 1.293326 -1.628682
v -1.917907 1.513475 0.000000
v -1.461293 2.134478 -4.326956
v -2.440233 -0.928347 -3.904172
v -1.461293 2.151126 -2.877699
v -1.461293 0.711418 -2.921482
v -2.294836 2.939088 -3.255039
v -2.294836 2.949145 -3.982844
v -1.726081 2.949145 -3.982844
v -1.726081 2.957766 -3.232367
vt 0.644899 0.159012
vt 0.644899 0.061173
vt 0.749825 0.065513
vt 0.749825 0.159012
vt 0.535880 0.159012
vt 0.535880 0.030179
vt 0.644899 0.204942
vt 0.535880 0.204942
vt 0.749825 0.204942
vt 0.424827 0.470769
vt 0.424827 0.370597
vt 0.453297 0.323700
vt 0.453297 0.562147
vt 0.453297 0.635522
vt 0.453297 0.816545
vt 0.381142 0.691670
vt 0.105957 0.635521
vt 0.105957 0.562147
vt 0.135001 0.470768
vt 0.459933 0.972669
vt 0.392389 0.972669
vt 0.407514 0.915088
vt 0.442820 0.915088
vt 0.749825 0.282064
vt 0.644899 0.282064
vt 0.535880 0.282064
vt 0.388942 0.370631
vt 0.373630 0.323700
vt 0.400056 0.816545
vt 0.506105 0.596476
vt 0.520383 0.816545
vt 0.328214 0.730121
vt 0.321286 0.816545
vt 0.388942 0.419014
vt 0.373614 0.419014
vt 0.834880 0.526371
vt 0.846922 0.526371
vt 0.854507 0.580087
vt 0.407514 0.866639
vt 0.442820 0.866639
vt 0.361572 0.866639
vt 0.488940 0.866639
vt 0.854751 0.159012
vt 0.854751 0.061173
vt 0.968588 0.030179
vt 0.968588 0.159012
vt 0.968588 0.204942
vt 0.854751 0.204942
vt 0.105957 0.323700
vt 0.135001 0.370598
vt 0.178111 0.691671
vt 0.105957 0.816545
vt 0.834880 0.769148
vt 0.834880 0.814816
vt 0.678657 0.814816
vt 0.678657 0.769148
vt 0.099321 0.972669
vt 0.116434 0.915088
vt 0.151741 0.915088
vt 0.166865 0.972669
vt 0.854751 0.282064
vt 0.968588 0.282064
vt 0.170355 0.370632
vt 0.185663 0.323700
vt 0.159198 0.816545
vt 0.053147 0.596477
vt 0.038871 0.816545
vt 0.231038 0.730121
vt 0.237968 0.816545
vt 0.185680 0.419014
vt 0.170355 0.419014
vt 0.678657 0.526371
vt 0.659030 0.580087
vt 0.666615 0.526371
vt 0.116434 0.866639
vt 0.151741 0.866639
vt 0.197682 0.866639
vt 0.070315 0.866639
vt 0.859288 0.647760
vt 0.654249 0.647760
vt 0.659030 0.715432
vt 0.854507 0.715432
vt 0.678657 0.480704
vt 0.834880 0.480704
vt 0.273767 0.302000
vt 0.382152 0.299466
vt 0.382152 0.016886
vt 0.273767 0.014352
vt 0.165381 0.016886
vt 0.053864 0.023219
vt 0.053864 0.293132
vt 0.165381 0.299466
vt 0.846922 0.769148
vt 0.493669 0.293132
vt 0.493670 0.023219
vt 0.666615 0.769148
vn 0.999100 -0.020800 0.037100
vn 0.998900 -0.021400 0.040900
vn 0.999800 -0.018700 -0.000000
vn 0.998300 -0.023300 0.053400
vn 0.000100 0.871000 0.491400
vn 0.000000 0.988900 0.148300
vn -0.002300 -0.001700 -1.000000
vn 0.008500 -0.014800 -0.999900
vn 0.018900 -0.025100 -0.999500
vn -0.000400 -0.000300 -1.000000
vn 0.001000 -0.137700 0.990500
vn 0.000500 -0.136200 0.990700
vn 0.000700 -0.137800 0.990500
vn 0.000000 -0.891300 -0.453500
vn 0.002300 -0.001700 1.000000
vn 0.000400 -0.000300 1.000000
vn -0.000400 -0.000300 1.000000
vn -0.002300 -0.001700 1.000000
vn 0.049400 0.388400 -0.920200
vn -0.989400 0.134800 -0.054200
vn -0.988400 0.151700 0.000000
vn -0.989600 0.125400 -0.069800
vn -0.989100 0.106500 -0.101200
vn 0.046200 -0.025400 -0.998600
vn 0.033300 -0.029500 -0.999000
vn 0.000000 -0.135900 0.990700
vn 0.999300 -0.036600 0.007900
vn -1.000000 0.000000 0.000000
vn 0.060400 -0.020900 -0.998000
vn 0.000000 0.880700 0.473800
vn 0.000000 0.911900 0.410500
vn 0.000000 0.963400 0.268100
vn 0.016400 0.999900 -0.001000
vn 0.000000 0.389100 0.921200
vn -0.950600 0.310500 0.003600
vn 0.951500 0.307500 -0.004200
vn -0.999100 -0.020800 0.037100
vn -0.999800 -0.018700 0.000000
vn -0.998900 -0.021400 0.040900
vn -0.998300 -0.023300 0.053400
vn -0.000100 0.871000 0.491400
vn -0.000100 0.941600 0.336700
vn -0.000100 0.947300 0.320500
vn 0.000000 1.000000 0.000000
vn 0.002300 -0.001700 -1.000000
vn 0.000400 -0.000300 -1.000000
vn -0.018900 -0.025100 -0.999500
vn -0.008500 -0.014800 -0.999900
vn -0.001000 -0.137700 0.990500
vn -0.000700 -0.137800 0.990500
vn -0.000500 -0.136200 0.990700
vn -0.000700 -0.137800 -0.990500
vn 0.000700 -0.137800 -0.990500
vn 0.001000 -0.137700 -0.990500
vn -0.001000 -0.137700 -0.990500
vn 0.000000 0.880700 -0.473800
vn 0.000000 0.805000 -0.593300
vn -0.049400 0.388400 -0.920200
vn 0.989400 0.134800 -0.054200
vn 0.989600 0.125400 -0.069800
vn 0.988400 0.151700 0.000000
vn 0.989100 0.106500 -0.101200
vn -0.046200 -0.025400 -0.998600
vn -0.033300 -0.029500 -0.999000
vn -0.999300 -0.036600 0.007900
vn 1.000000 -0.000000 0.000000
vn -0.060400 -0.020900 -0.998000
vn -0.016400 0.999900 -0.001000
vn 0.950600 0.310500 0.003600
vn -0.951500 0.307500 -0.004200
vn 0.999100 -0.020800 -0.037100
vn 0.998900 -0.021400 -0.040900
vn 0.998300 -0.023300 -0.053400
vn 0.000100 0.871000 -0.491400
vn 0.000000 0.988900 -0.148300
vn 0.018900 -0.025100 0.999500
vn 0.008500 -0.014800 0.999900
vn 0.000500 -0.136200 -0.990700
vn 0.000000 0.963400 -0.268100
vn 0.049400 0.388400 0.920200
vn -0.989400 0.134800 0.054200
vn -0.989600 0.125400 0.069800
vn -0.989100 0.106500 0.101200
vn 0.046200 -0.025400 0.998600
vn 0.033300 -0.029500 0.999000
vn 0.000000 -0.135900 -0.990700
vn 0.000000 0.805000 0.593300
vn 0.999300 -0.036600 -0.007900
vn 0.000000 -0.976400 0.216100
vn 0.060400 -0.020900 0.998000
vn 0.000000 -0.779900 -0.625900
vn 0.000000 0.911900 -0.410500
vn 0.016400 0.999900 0.001000
vn 0.000000 0.389100 -0.921200
vn -0.950600 0.310500 -0.003600
vn 0.951500 0.307500 0.004200
vn -0.999100 -0.020800 -0.037100
vn -0.998900 -0.021400 -0.040900
vn -0.998300 -0.023300 -0.053400
vn -0.000100 0.871000 -0.491400
vn -0.000100 0.947300 -0.320500
vn -0.000100 0.941600 -0.336700
vn -0.008500 -0.014800 0.999900
vn -0.018900 -0.025100 0.999500
vn -0.000500 -0.136200 -0.990700
vn -0.049400 0.388400 0.920200
vn 0.989400 0.134800 0.054200
vn 0.989600 0.125400 0.069800
vn 0.989100 0.106500 0.101200
vn 0.000000 -0.891300 0.453500
vn -0.046200 -0.025400 0.998600
vn -0.033300 -0.029500 0.999000
vn -0.999300 -0.036600 -0.007900
vn 0.000000 -0.779900 0.625900
vn -0.060400 -0.020900 0.998000
vn 0.000000 -0.976400 -0.216100
vn -0.016400 0.999900 0.001000
vn 0.950600 0.310500 -0.003600
vn -0.951500 0.307500 0.004200
s 1
f 1/1/1 2/2/2 44/3/3 43/4/3
f 2/2/2 1/1/1 3/5/4 4/6/4
f 3/5/5 1/1/5 5/7/5 6/8/5
f 1/1/6 43/4/6 48/9/6 5/7/6
f 4/10/7 3/11/8 7/12/9 8/13/10
f 14/14/11 9/15/12 10/16/13
f 75/13/14 82/14/14 58/17/14 51/18/14
f 70/10/15 75/13/16 51/18/17 46/19/18
f 7/20/19 15/21/19 20/22/19 17/23/19
f 5/7/20 48/9/21 56/24/21 12/25/22
f 5/7/20 12/25/22 11/26/23 6/8/23
f 6/27/24 15/28/25 7/12/9 3/11/8
f 9/15/12 13/29/26 10/16/13
f 8/30/27 7/31/27 9/15/27 14/14/27
f 16/32/28 10/16/28 13/29/28 15/33/28
f 6/27/24 11/34/29 16/35/29 15/28/25
f 16/36/30 11/37/31 12/38/32
f 17/23/33 20/22/33 19/39/33 18/40/33
f 13/29/34 9/15/34 18/40/34 19/39/34
f 15/33/35 13/29/35 19/39/35 20/41/35
f 9/15/36 7/31/36 17/42/36 18/40/36
f 21/43/37 67/4/38 68/3/38 22/44/39
f 22/44/39 24/45/40 23/46/40 21/43/37
f 23/46/41 26/47/41 25/48/42 21/43/43
f 21/43/43 25/48/42 72/9/44 67/4/44
f 24/19/45 28/18/46 27/49/47 23/50/48
f 34/17/49 30/51/50 29/52/51
f 77/16/52 53/51/53 58/17/54 82/14/55
f 60/53/56 53/54/57 77/55/57 84/56/56
f 27/57/58 37/58/58 40/59/58 35/60/58
f 25/48/59 32/61/60 80/24/61 72/9/61
f 25/48/59 26/47/62 31/62/62 32/61/60
f 26/63/63 23/50/48 27/49/47 35/64/64
f 29/52/51 30/51/50 33/65/26
f 28/66/65 34/17/65 29/52/65 27/67/65
f 36/68/66 35/69/66 33/65/66 30/51/66
f 26/63/63 35/64/64 36/70/67 31/71/67
f 36/72/30 32/73/32 31/74/31
f 37/58/68 38/75/68 39/76/68 40/59/68
f 33/65/34 39/76/34 38/75/34 29/52/34
f 35/69/69 40/77/69 39/76/69 33/65/69
f 29/52/70 38/75/70 37/78/70 27/67/70
f 41/43/71 43/4/3 44/3/3 42/44/72
f 42/44/72 46/45/73 45/46/73 41/43/71
f 45/46/74 49/47/74 47/48/74 41/43/74
f 41/43/75 47/48/75 48/9/75 43/4/75
f 46/19/18 51/18/17 50/49/76 45/50/77
f 58/17/54 53/51/53 52/52/78
f 12/38/32 56/79/44 80/80/44 32/73/32
f 84/56/56 79/81/79 55/82/79 60/53/56
f 50/57/80 61/58/80 64/59/80 59/60/80
f 47/48/81 55/61/82 56/24/21 48/9/21
f 47/48/81 49/47/83 54/62/83 55/61/82
f 4/10/7 8/13/10 28/18/46 24/19/45
f 49/63/84 45/50/77 50/49/76 59/64/85
f 52/52/78 53/51/53 57/65/86
f 16/36/30 36/72/30 30/83/87 10/84/87
f 51/66/88 58/17/88 52/52/88 50/67/88
f 60/68/28 59/69/28 57/65/28 53/51/28
f 68/85/89 66/86/89 42/87/89 44/88/89
f 49/63/84 59/64/85 60/70/90 54/71/90
f 2/89/91 4/90/91 24/91/91 22/92/91
f 60/53/56 55/82/79 54/93/92
f 61/58/93 62/75/93 63/76/93 64/59/93
f 57/65/94 63/76/94 62/75/94 52/52/94
f 59/69/95 64/77/95 63/76/95 57/65/95
f 52/52/96 62/75/96 61/78/96 50/67/96
f 65/1/97 66/2/98 68/3/38 67/4/38
f 66/2/98 65/1/97 69/5/99 70/6/99
f 69/5/100 65/1/101 71/7/102 73/8/100
f 65/1/101 67/4/44 72/9/44 71/7/102
f 70/10/15 69/11/103 74/12/104 75/13/16
f 82/14/55 76/15/105 77/16/52
f 16/36/30 12/38/32 32/73/32 36/72/30
f 80/80/44 56/79/44 55/82/79 79/81/79
f 74/20/106 83/21/106 88/22/106 85/23/106
f 71/7/107 72/9/61 80/24/61 79/25/108
f 71/7/107 79/25/108 78/26/109 73/8/109
f 28/18/110 8/13/110 14/14/110 34/17/110
f 73/27/111 83/28/112 74/12/104 69/11/103
f 76/15/105 81/29/86 77/16/52
f 14/14/11 10/16/13 30/51/50 34/17/49
f 75/30/113 74/31/113 76/15/113 82/14/113
f 84/32/66 77/16/66 81/29/66 83/33/66
f 70/94/114 46/95/114 42/87/114 66/86/114
f 73/27/111 78/34/115 84/35/115 83/28/112
f 44/88/116 2/89/116 22/92/116 68/85/116
f 84/56/56 78/96/92 79/81/79
f 85/23/117 88/22/117 87/39/117 86/40/117
f 81/29/94 76/15/94 86/40/94 87/39/94
f 83/33/118 81/29/118 87/39/118 88/41/118
f 76/15/119 74/31/119 85/42/119 86/40/119
