# Blender v2.76 (sub 0) OBJ File: 'rpg items 3.blend'
# www.blender.org
v -0.025454 -0.338761 -0.023225
v 0.626576 -0.066034 0.975193
v -0.522491 -0.003042 1.181067
v -1.320889 -0.075466 -0.196878
v -0.102791 -0.166187 -1.423042
v 1.170622 -0.121507 -0.368207
v 0.160034 0.584601 1.145079
v -0.551513 0.934795 0.554726
v -0.865992 0.762880 -0.908505
v 0.454011 0.797636 -0.981998
v 0.956029 0.676652 0.139582
v 0.021857 1.228850 -0.093792
vt 0.654140 0.699102
vt 0.484811 0.930615
vt 0.323368 0.745223
vt 0.892642 0.921226
vt 0.782983 0.350309
vt 0.963910 0.591645
vt 0.040138 0.530792
vt 0.090800 0.040870
vt 0.157046 0.265379
vt 0.234269 0.501086
vt 0.445407 0.461485
vt 0.650485 0.017789
vt 0.590673 0.234988
vt 0.353829 0.105911
vt 0.355392 0.308387
vn -0.013700 -0.998500 0.052200
vn 0.563300 -0.480600 0.672000
vn -0.453600 -0.376100 0.807900
vn 0.865700 -0.454200 -0.210300
vn -0.918500 -0.395300 -0.012100
vn -0.021500 -0.482100 -0.875900
vn 0.815100 0.548700 0.185600
vn 0.205800 0.489200 0.847500
vn -0.506900 0.744700 0.434100
vn -0.629200 0.538900 -0.560000
vn 0.444400 0.591000 -0.673200
vn 0.073400 0.997300 0.009100
s 1
f 1/1/1 2/2/2 3/3/3
f 2/2/2 1/1/1 6/4/4
f 1/1/1 3/3/3 4/5/5
f 1/1/1 4/5/5 5/6/6
f 1/1/1 5/6/6 6/4/4
f 2/7/2 6/8/4 11/9/7
f 3/3/3 2/7/2 7/10/8
f 4/5/5 3/3/3 8/11/9
f 5/12/6 4/5/5 9/13/10
f 6/8/4 5/12/6 10/14/11
f 2/7/2 11/9/7 7/10/8
f 3/3/3 7/10/8 8/11/9
f 4/5/5 8/11/9 9/13/10
f 5/12/6 9/13/10 10/14/11
f 6/8/4 10/14/11 11/9/7
f 7/10/8 11/9/7 12/15/12
f 8/11/9 7/10/8 12/15/12
f 9/13/10 8/11/9 12/15/12
f 10/14/11 9/13/10 12/15/12
f 11/9/7 10/14/11 12/15/12
