# Blender v2.76 (sub 0) OBJ File: 'rpg items 3.blend'
# www.blender.org
v 1.128977 -0.153473 0.799850
v 1.429965 1.261677 0.908647
v 1.029094 1.261677 0.677204
v 0.984451 -0.018898 0.712136
v 1.235381 1.261677 0.223637
v 1.342295 2.172431 0.215582
v 1.195814 3.324132 0.194301
v 1.567366 2.560435 1.483086
v 1.593028 2.682253 1.564895
v -0.017893 -0.153473 1.423162
v -1.164762 -0.153473 0.799850
v -0.017893 1.261677 1.738607
v -1.465750 1.261677 0.908647
v -0.017893 1.261677 1.275721
v -1.064879 1.261677 0.677204
v -0.017893 -0.018898 1.253949
v -1.020236 -0.018898 0.712136
v -0.016241 2.148173 0.163013
v -1.271166 1.261677 0.223637
v -1.378516 2.170900 0.236697
v -1.231600 3.324132 0.194301
v -0.017893 -0.018898 0.163864
v -1.603151 2.560435 1.483086
v -1.628814 2.682253 1.564895
v 1.128977 -0.153473 -0.658341
v 1.429965 1.261677 -0.767138
v 1.029094 1.261677 -0.535695
v 0.984451 -0.018898 -0.570628
v 1.429965 1.261677 0.070754
v 1.064099 3.378440 0.070754
v 1.494244 2.067557 0.070754
v 1.235381 1.261677 -0.082129
v 1.339306 2.172431 -0.070400
v 1.185496 2.335681 0.070754
v 1.323016 3.383632 0.070754
v 1.195814 3.324132 -0.052792
v 1.185496 2.036777 0.070754
v 1.089224 1.261677 0.070754
v 0.078934 2.074242 0.070754
v 0.074235 -0.018898 0.070754
v 1.708214 3.383354 0.070754
v 1.567366 2.560435 -1.341578
v 1.736156 3.505172 0.070754
v 1.593028 2.682253 -1.423386
v -0.017893 -0.153473 -1.281654
v -1.164762 -0.153473 -0.658341
v -0.017893 1.261677 -1.597098
v -1.465750 1.261677 -0.767138
v -0.017893 1.261677 -1.134212
v -1.064879 1.261677 -0.535695
v -0.017893 -0.018898 -1.112440
v -1.020236 -0.018898 -0.570628
v -1.465750 1.261677 0.070754
v -1.099884 3.378440 0.070754
v -1.523161 2.170900 0.070754
v -0.016241 2.148173 -0.021505
v -1.271166 1.261677 -0.082129
v -1.378516 2.170900 -0.095189
v -0.016241 2.270648 0.070754
v -1.221281 2.335681 0.070754
v -1.358802 3.383632 0.070754
v -1.231600 3.324132 -0.052792
v -1.221281 2.026697 0.070754
v -1.125009 1.261677 0.070754
v -0.119675 2.067806 0.070754
v -0.017893 -0.018898 -0.022355
v -0.110020 -0.018898 0.070754
v -1.743999 3.383354 0.070754
v -1.603151 2.560435 -1.341578
v -1.771942 3.505172 0.070754
v -1.628814 2.682253 -1.423386
v 1.487376 2.325178 0.070754
v 1.808816 2.173962 0.166269
v 1.710917 2.103220 0.068840
v 1.777125 2.173962 -0.045612
v 1.906435 2.266266 0.068840
v 1.807252 1.196776 0.166269
v 1.709353 1.126035 0.068840
v 1.775561 1.196776 -0.045612
v 1.904871 1.289081 0.068840
v 2.157339 1.144283 0.068840
v 2.157339 1.270832 0.068840
vt 0.814342 0.829844
vt 0.814342 0.981305
vt 0.652536 0.981305
vt 0.652536 0.829844
vt 0.017274 0.516664
vt 0.054971 0.494900
vt 0.153425 0.551182
vt 0.153425 0.594711
vt 0.362331 0.810839
vt 0.362331 0.662914
vt 0.506212 0.662914
vt 0.506212 0.810839
vt 0.049316 0.437872
vt 0.035572 0.452248
vt 0.198888 0.103205
vt 0.337538 0.103205
vt 0.337538 0.118276
vt 0.180651 0.118276
vt 0.322740 0.131114
vt 0.221836 0.131114
vt 0.906319 0.981305
vt 0.017274 0.437872
vt 0.722030 0.810839
vt 0.854005 0.662914
vt 0.854005 0.810839
vt 0.337538 0.347428
vt 0.322740 0.347428
vt 0.844244 0.228068
vt 0.982760 0.228068
vt 0.855771 0.283764
vt 0.844257 0.270760
vt 0.539856 0.228068
vt 0.539856 0.247416
vt 0.387786 0.247416
vt 0.373639 0.228068
vt 0.488665 0.607198
vt 0.167994 0.607198
vt 0.667095 0.662914
vt 0.488038 0.829844
vt 0.488038 0.981305
vt 0.289577 0.516664
vt 0.251880 0.494900
vt 0.667095 0.810839
vt 0.257535 0.437872
vt 0.271279 0.452248
vt 0.484117 0.118276
vt 0.484117 0.005216
vt 0.501781 0.005216
vt 0.501781 0.118276
vt 0.466907 0.103205
vt 0.484117 0.205910
vt 0.466907 0.205910
vt 0.466907 0.131114
vt 0.466907 0.005216
vt 0.350810 0.131114
vt 0.982388 0.829844
vt 0.501781 0.205910
vt 0.289577 0.437872
vt 0.229984 0.810839
vt 0.350810 0.347428
vt 0.844364 0.583627
vt 0.844351 0.547293
vt 0.855880 0.534252
vt 0.982760 0.583627
vt 0.539856 0.583627
vt 0.373639 0.583627
vt 0.387786 0.563802
vt 0.539856 0.563802
vt 0.814127 0.607198
vt 0.159405 0.662914
vt 0.014866 0.829844
vt 0.166537 0.829844
vt 0.166537 0.981305
vt 0.014866 0.981305
vt 0.017274 0.359079
vt 0.153425 0.281033
vt 0.153425 0.324561
vt 0.054971 0.380843
vt 0.159405 0.810839
vt 0.040083 0.810839
vt 0.040083 0.662914
vt 0.035572 0.423495
vt 0.210430 0.087498
vt 0.337538 0.087498
vt 0.212589 0.165704
vt 0.191523 0.141319
vt 0.225058 0.157733
vt 0.236786 0.150236
vt 0.213674 0.072410
vt 0.322740 0.072410
vt 0.322995 0.829844
vt 0.413497 0.981305
vt 0.308565 0.139177
vt 0.308565 0.347428
vt 0.844266 0.297299
vt 0.844342 0.520712
vt 0.832813 0.534263
vt 0.832752 0.283776
vt 0.705831 0.228068
vt 0.705865 0.583627
vt 0.691549 0.247416
vt 0.691549 0.563802
vt 0.017293 0.607198
vt 0.322995 0.981305
vt 0.289577 0.359079
vt 0.251880 0.380843
vt 0.973764 0.662914
vt 0.973764 0.810839
vt 0.271279 0.423495
vt 0.518755 0.118276
vt 0.518755 0.005216
vt 0.459014 0.087498
vt 0.518755 0.205910
vt 0.535508 0.130931
vt 0.535508 0.205910
vt 0.535508 0.005216
vt 0.535508 0.103205
vt 0.350810 0.072410
vt 0.458349 0.072410
vt 0.982388 0.981305
vt 0.294063 0.347428
vt 0.294063 0.141319
vt 0.972877 0.607198
vt 0.151682 0.150707
vt 0.151682 0.118276
vt 0.161959 0.118276
vt 0.161959 0.150707
vt 0.161959 0.005216
vt 0.172376 0.005216
vt 0.183666 0.005216
vt 0.139884 0.150707
vt 0.132948 0.131114
vt 0.161959 0.206906
vt 0.151682 0.206906
vt 0.139884 0.206906
vt 0.172376 0.150707
vt 0.183666 0.150707
vt 0.183666 0.206906
vt 0.172376 0.206906
vt 0.074120 0.118276
vt 0.074120 0.103205
vt 0.124939 0.103205
vt 0.074120 0.131114
vt 0.133059 0.096150
vt 0.139884 0.005216
vt 0.151682 0.005216
vt 0.161959 0.237212
vt 0.161959 0.265193
vn 0.833900 -0.223000 0.504800
vn 0.846700 -0.223700 0.482700
vn -0.000000 -0.205000 0.978800
vn 0.000000 1.000000 -0.000000
vn -0.842500 0.020700 -0.538400
vn -0.664000 0.621800 -0.415200
vn 0.000000 0.616900 -0.787000
vn 0.000000 0.004600 -1.000000
vn -0.059700 0.998200 -0.002300
vn 0.005300 1.000000 -0.001700
vn 0.004500 0.172000 0.985100
vn -0.039100 -0.044300 0.998300
vn -0.023800 -0.999700 -0.003700
vn -0.023800 -0.999700 -0.003100
vn 0.978100 -0.208000 0.000000
vn 0.998900 0.046800 0.000000
vn 0.664000 0.621800 0.415200
vn 0.842500 0.020700 0.538400
vn 0.019000 -0.001400 0.999800
vn 0.010500 -0.001400 0.999900
vn 1.000000 -0.001300 -0.000000
vn -0.020700 -0.865300 -0.500800
vn -0.004100 -0.861300 -0.508000
vn -0.009400 -0.872700 -0.488200
vn 0.978200 -0.207800 -0.000000
vn 0.977900 -0.207700 -0.022100
vn 0.664000 0.621800 -0.415200
vn -0.833900 -0.223000 0.504800
vn -0.846700 -0.223700 0.482700
vn 0.842500 0.020700 -0.538400
vn -0.271800 0.021200 0.962100
vn 0.057200 0.016300 0.998200
vn -0.989100 0.147300 0.000000
vn -0.999600 0.026100 0.000000
vn 0.067100 0.997700 0.000000
vn 0.049200 -0.039300 0.998000
vn 0.097700 0.018800 0.995000
vn 0.993500 0.113900 0.000000
vn 0.994600 -0.103900 0.000000
vn 0.033700 -0.999400 0.000000
vn 0.833900 -0.223000 -0.504800
vn -0.995200 -0.097800 0.000000
vn -0.998900 0.046800 0.000000
vn -1.000000 -0.001700 -0.000000
vn 0.020700 -0.865300 -0.500800
vn 0.009400 -0.872700 -0.488200
vn 0.004100 -0.861300 -0.508000
vn -0.978200 -0.207800 0.000000
vn -0.977900 -0.207700 -0.022100
vn -0.664000 0.621800 0.415200
vn -0.000000 -0.205000 -0.978800
vn 0.846700 -0.223700 -0.482700
vn -0.842500 0.020700 0.538400
vn 0.000000 0.004600 1.000000
vn 0.000000 0.616900 0.787000
vn -0.037500 -0.044200 -0.998300
vn 0.005200 0.170700 -0.985300
vn 0.995800 -0.091500 -0.004900
vn 0.995800 -0.091500 -0.004700
vn 0.064900 0.007100 0.997900
vn -0.104800 0.025900 0.994200
vn -0.992200 0.124300 -0.002600
vn -0.992200 0.124300 -0.000400
vn -0.833900 -0.223000 -0.504800
vn -0.978100 -0.208000 0.000000
vn 0.019000 -0.001400 -0.999800
vn 0.010500 -0.001400 -0.999900
vn 0.000000 -0.915500 0.402400
vn 0.009400 -0.872700 0.488200
vn -0.009400 -0.872700 0.488200
vn -0.020700 -0.865300 0.500800
vn -0.004100 -0.861300 0.508000
vn 0.004100 -0.861300 0.508000
vn 0.977900 -0.207700 0.022100
vn 0.000000 0.875900 -0.482400
vn -0.846700 -0.223700 -0.482700
vn -0.271800 0.021200 -0.962100
vn 0.057200 0.016300 -0.998200
vn 0.049200 -0.039300 -0.998000
vn 0.097700 0.018800 -0.995000
vn 0.000000 -0.915500 -0.402400
vn 0.000000 -0.557500 0.830200
vn 0.020700 -0.865300 0.500800
vn 0.000000 -0.557500 -0.830200
vn -0.977900 -0.207700 0.022100
vn 0.000000 0.875900 0.482400
vn 0.145700 0.144300 -0.978700
vn 0.099400 -0.026600 -0.994700
vn 0.112000 0.993600 0.015000
vn 0.761800 0.647700 -0.011000
vn 0.988900 0.148400 -0.005400
vn -0.074300 0.008700 0.997200
vn 0.064800 0.026800 0.997500
vn 0.988900 0.148400 -0.005100
vn -0.993700 -0.112000 -0.002900
vn -0.993700 -0.112000 -0.000500
vn 0.096300 -0.994300 0.046000
vn 0.095700 -0.995400 0.009900
vn 1.000000 -0.001600 -0.005200
vn -0.245700 -0.299300 -0.922000
vn -0.991800 0.001600 0.128100
vn -0.703600 -0.707000 0.071900
vn 0.217500 0.150500 0.964400
vn -0.133300 -0.280000 0.950700
vn -0.107000 0.028000 -0.993900
vn 0.062400 0.009500 -0.998000
vn -0.077500 0.006600 -0.997000
vn 0.063500 0.024800 -0.997700
vn 0.127000 -0.033700 0.991300
vn 0.822400 0.568800 0.008600
vn 0.072100 0.997300 0.013600
vn 0.825500 -0.564300 0.008500
s 1
f 1/1/1 2/2/2 12/3/3 10/4/3
f 2/5/4 3/6/4 14/7/4 12/8/4
f 3/9/5 4/10/6 16/11/7 14/12/8
f 38/13/4 3/6/4 5/14/4
f 34/15/9 59/16/10 18/17/11 6/18/12
f 3/6/4 2/5/4 5/14/4
f 18/17/11 39/19/13 37/20/14 6/18/12
f 2/2/2 1/1/1 29/21/15
f 29/22/4 5/14/4 2/5/4
f 64/23/16 52/24/17 50/25/18
f 18/17/19 22/26/20 40/27/21 39/19/21
f 41/28/22 8/29/23 7/30/24 35/31/22
f 41/32/25 43/33/25 9/34/26 8/35/26
f 22/36/4 4/10/6 40/37/4
f 17/38/27 52/24/17 64/23/16
f 16/11/7 4/10/6 22/36/4
f 11/39/28 10/4/3 12/3/3 13/40/29
f 13/41/4 12/8/4 14/7/4 15/42/4
f 15/43/30 14/12/8 16/11/7 17/38/27
f 64/44/4 19/45/4 15/42/4
f 20/46/31 21/47/32 61/48/33 55/49/34
f 60/50/35 20/46/36 18/17/11 59/16/10
f 15/42/4 19/45/4 13/41/4
f 19/51/37 64/52/38 63/53/38 20/46/31
f 21/47/32 20/46/31 60/50/39 54/54/39
f 18/17/11 20/46/36 63/53/40 65/55/40
f 25/56/41 29/21/15 1/1/1
f 53/57/42 19/51/37 20/46/31 55/49/34
f 53/58/4 13/41/4 19/45/4
f 3/9/5 38/59/43 4/10/6
f 18/17/19 65/55/44 67/60/44 22/26/20
f 68/61/45 61/62/45 21/63/46 23/64/47
f 68/65/48 23/66/49 24/67/49 70/68/48
f 22/36/4 67/69/4 17/38/27
f 4/10/6 28/70/50 40/37/4
f 16/11/7 22/36/4 17/38/27
f 25/71/41 45/72/51 47/73/51 26/74/52
f 26/75/4 47/76/4 49/77/4 27/78/4
f 27/79/53 49/80/54 51/81/55 28/70/50
f 38/13/4 32/82/4 27/78/4
f 34/15/9 33/83/56 56/84/57 59/16/10
f 27/78/4 32/82/4 26/75/4
f 29/85/58 31/86/59 6/18/60 5/87/61
f 5/87/61 6/18/60 37/20/62 38/88/63
f 56/84/57 33/83/56 37/89/14 39/90/13
f 46/91/64 11/39/28 53/92/65
f 29/22/4 26/75/4 32/82/4
f 15/43/30 17/38/27 64/23/16
f 56/93/66 39/19/21 40/27/21 66/94/67
f 8/29/23 23/64/47 21/63/46 7/30/24
f 30/95/68 54/96/68 62/97/69 36/98/70
f 41/28/71 35/31/71 36/98/70 42/99/72
f 42/99/72 36/98/70 62/97/69 69/100/73
f 41/32/25 42/99/74 44/101/74 43/33/25
f 70/68/75 43/33/75 44/101/75 71/102/75
f 66/103/4 40/37/4 28/70/50
f 17/38/27 67/69/4 52/24/17
f 51/81/55 66/103/4 28/70/50
f 46/91/64 48/104/76 47/73/51 45/72/51
f 48/105/4 50/106/4 49/77/4 47/76/4
f 50/25/18 52/24/17 51/107/55 49/108/54
f 64/44/4 50/106/4 57/109/4
f 58/110/77 55/49/34 61/48/33 62/111/78
f 60/50/35 59/16/10 56/84/57 58/112/79
f 50/106/4 48/105/4 57/109/4
f 57/113/80 58/110/77 63/114/38 64/115/38
f 62/111/78 54/116/39 60/117/39 58/110/77
f 56/84/57 65/118/40 63/119/40 58/112/79
f 29/21/15 25/56/41 26/120/52
f 53/57/42 55/49/34 58/110/77 57/113/80
f 53/58/4 57/109/4 48/105/4
f 38/59/43 27/79/53 28/70/50
f 56/93/66 66/94/67 67/121/44 65/122/44
f 30/95/81 7/30/24 21/63/46 54/96/81
f 8/35/82 9/34/82 24/67/82 23/66/82
f 68/61/83 69/100/73 62/97/69 61/62/83
f 69/100/84 71/102/84 44/101/84 42/99/84
f 68/65/48 70/68/48 71/102/85 69/100/85
f 9/34/86 43/33/86 70/68/86 24/67/86
f 66/123/4 52/24/17 67/69/4
f 28/70/50 4/10/6 38/59/43
f 51/107/55 52/24/17 66/123/4
f 75/124/87 33/125/88 72/126/89 76/127/90
f 35/128/91 7/129/92 6/18/93 72/126/94
f 34/15/95 6/18/93 7/129/92 30/130/96
f 33/125/88 75/124/87 74/131/97 31/132/98
f 75/124/87 76/127/90 80/133/99 79/134/100
f 74/131/101 75/124/87 79/134/100 78/135/102
f 73/136/103 74/137/101 78/138/102 77/139/104
f 76/127/90 73/136/103 77/139/104 80/133/99
f 32/140/105 38/141/63 37/142/62 33/125/106
f 29/143/58 32/140/105 33/125/106 31/132/59
f 34/144/95 30/145/96 36/146/107 33/125/108
f 35/128/91 72/126/94 33/125/108 36/146/107
f 76/127/90 72/126/89 6/18/109 73/136/103
f 6/18/109 31/86/98 74/137/97 73/136/103
f 77/139/104 82/147/110 80/133/111
f 81/148/112 82/147/110 77/139/104
f 77/139/104 78/138/102 81/148/112
f 79/134/100 81/148/112 78/135/102
f 80/133/111 82/147/110 79/134/100
f 82/147/110 81/148/112 79/134/100
f 53/92/65 48/104/76 46/91/64
f 53/92/65 11/39/28 13/40/29
